<?xml version="1.0" encoding="UTF-8"?>
<svg version="1.1" viewBox="0 0 2048 2048" width="30" height="28" xmlns="http://www.w3.org/2000/svg">
<path transform="translate(1804,288)" d="m0 0h9l9 3 6 4 5 5 5 8 2 8-1 13-17 63-132 484-34 125-78 286-19 70-14 51-12 44-11 40-5 13-7 8-12 6h-17l-14-7-18-13-68-48-20-14-85-60-20-14-102-72-20-14-14-10-17-12-5 2-10 10-11 9-7 7-8 7-14 12-11 10-8 7-10 9-8 7-14 12-14 13-6 5h-2v2l-8 7-10 9-11 9-15 14-11 9-14 13-8 7-10 9-8 7-10 9-11 9-15 14-11 9-14 13-14 11-8 3-10 1-12-3-6-4-8-9-3-7-2-16-17-264-13-200-16-8-30-14-35-16-28-13-33-15-34-16-63-29-30-14-33-15-30-14-63-29-30-14-39-18-33-15-23-11-6-5-6-10-2-6v-12l4-11 8-9 10-5 81-22 251-68 251-68 192-52 166-45 203-55 439-119zm-194 118-22 6-48 13-136 37-34 9-55 15-74 20-413 112-38 10-77 21-240 65-78 21-69 19-7 2-1 2 25 11 32 15 33 15 30 14 65 30 28 13 35 16 41 19 67 31 33 15 32 15 14 7 5-2 16-10 20-13 25-16 17-11 25-16 17-11 25-16 17-11 25-16 17-11 25-16 17-11 25-16 20-13 25-16 17-11 50-32 17-11 22-14 20-13 25-16 17-11 50-32 20-13 25-16 17-11 50-32 20-13 22-14 20-13 50-32 20-13 22-14 20-13 19-12 14-9 3-3zm136 15-11 9-10 10-8 7-7 7-8 7-17 16-13 12-12 11-26 24-15 14-10 9-15 14-12 11-15 14-24 22-30 28-2 1v2l-4 2-8 8-8 7-6 5v2l-4 2-9 9-8 7-5 4v2l-4 2-9 9-8 7-16 15-13 12-2 1v2l-4 2-9 9-8 7-16 15-52 48-15 14-24 22-15 14-13 12-12 11-15 14-3 2v2l-4 2-10 10-8 7-4 3v2l-4 2-9 9-8 7-16 15-39 36-12 11-15 14-12 11-26 24-15 14-12 11-15 14-12 10 4 4 37 24 29 19 17 11 39 26 20 14 18 13 16 11 34 24 20 14 85 60 20 14 14 10 20 14 51 36 40 28 5 4h2l5-18 35-128 25-92 162-594 16-58 9-34 15-54 8-30 1-6zm-234 127-16 10-22 14-20 13-25 16-20 13-25 16-22 14-23 15-22 14-17 11-22 14-17 11-47 30-20 13-25 16-20 13-14 9-25 16-34 22-22 14-17 11-22 14-20 13-25 16-17 11-50 32-17 11-25 16-20 13-22 14-17 11-11 7-1 4 18 279 3 48 2 7 3-3 6-16 13-30 23-54 14-33 15-35 17-40 15-35 6-10 9-9 8-7 16-15 24-22 15-14 12-11 39-36 15-14 10-9 17-16 8-7 8-8 8-7 4-3v-2l4-2 9-9 8-7 30-28 12-11 13-12 15-14 12-11 13-12 12-11 15-14 5-4v-2l4-2 8-7v-2l4-2 7-7 8-7 17-16 15-14 10-9 15-14 10-9 17-16 10-9 15-14 10-9 17-16 12-11 16-15 10-9 12-11 7-7 8-7 5-4v-2l4-2 7-6zm-550 614-8 20-13 30-46 108-13 30-7 16v2l4-2 11-10 8-7 12-11 11-9 14-13 8-7 14-12 13-12 8-7 14-12 13-12 8-7 10-9 11-9 12-11-1-3-16-10-15-10-26-17-14-9-10-7z" fill="#ffffff"/>
<path transform="translate(1546,359)" d="m0 0h3l4 1-1 4-11 4-10 5-10 4-19 6-2 2-11 2-2 4-5 2h-3l-1 5-2 2-7 2-2 4-10 8-3 3h-2l-2 6-5 5-9 8 6 2 7-1 2-2 6-1 5 1 8-3 9-2 3 1 1 6-3 1-1 4-13 4-62 17-34 9-55 15-74 20-413 112-38 10-77 21-240 65-78 21-69 19-7 2 15 7 63 29 30 14 33 15 32 15 24 11 39 18 28 13 35 16 32 15 33 15 41 19 20 9 9 5 5-2 16-10 20-13 25-16 17-11 25-16 17-11 25-16 17-11 25-16 17-11 25-16 2-1 1 6 7-3 6-5h4v-2l8-2 1-3 8-5 5-3 3 1-6 7-6 4h-3l-1 3h-4l-2 5-5 7-6 5-2 4-10 3-5 10-8 7-9 5-13 11-11 9-8 6-10 7-11 8-11 9-10 9-14 10h-2l-2 4-12 9-10 8-7 6-8 6-5 4-12 6-4 4-4 3-8 5-4 4 8-4 2-2h5v2l-4 1v2l4-2h4v-2l6-1v-2l4-2 3-3h2v-2l-3-1 8-6 5-3 4 1-5 2h4l11-7 12-7 10-4 4-3h2v-2l6-1v-2h2v-4l10-4 5-3 4-1v-2l9-3 2 1 2-4 5 1-4 7-1 2-6-1-3 1 1 3-5 3-1 2h-5l-2 3 2 1-4 3-5 1-1-3-2 1-3 6-5 3-5 4-7 3-1 1v2h-2l-2 7-22 14-54 35h-2l-1 4-6 2v14l-5-2-1-7 1-3-9-3-3-3h-2l-1 9-8 16-5 5-3 6-2 11h-2l-1 11v7h-2l1 8v10l-1 2-4-1 1-2-7-1-5-77-16-8-30-14-35-16-28-13-33-15-34-16-63-29-30-14-33-15-30-14-63-29-30-14-39-18-33-15-23-11-6-5-6-10-2-6v-12l4-11 8-9 10-5 81-22 251-68 251-68 192-52 166-45 203-55 163-44 12-3 4 1 9-1z" fill="#ffffff"/>
<path transform="translate(1716,774)" d="m0 0 1 3-36 132-25 92-78 286-19 70-14 51-12 44-11 40-5 13-7 8-12 6h-17l-14-7-18-13-68-48-20-14-85-60-20-14-102-72-20-14-21-15v-4l7-1 3 1 2-1 4 1-1-5-2-1h2v-3l-4 1-5-4v-2l5-1 1-6 6-3h2l2-4h8l-2-4 4-1-3-4 5-1-3-9v-2l5-1 18 13 20 14 17 12 20 14 17 12 20 14 18 13 19 13 18 13 23 16 14 10 20 14 51 36 40 28 7 5 3-14 34-125 135-495 6-21h2l1-2 2 1v8l2 1-4 6-1 5 2 4-3 7v15l-1 2 6-1 2-5 3-6 6-2 2-4 3 3 1 3h4l5-5 1 4 5-9h2l2-5 2-7 3-3-1 9h2l1-4 2-9 5-4 2 3 1-7h3v-2l4-1z" fill="#ffffff"/>
<path transform="translate(767,1011)" d="m0 0 4 5 6 1v2h2v8l1 2 3 1v-13l3-2h5l18 279 3 48 1 6 2-2 6-16 13-30 23-54 8-19 3 1-1 4-2 1v9l-3 10-2 1v7l-5 10v4h-2l-1 8-3 1-1 6-4 6 2 1-3 5-5 7-1 6 1 2h-2l1 2 5-2 11-7 5-6h2l3-11 8-13 4-5 4-9 11-16 5-10 12-15h3l1-4 3-3 2-12 4-6 2-1 2-6 4-1 3 1 2 6h-2v2h3l-1 5 3 1 2-2 1-4 2-2v-8l2-2 2 1-1-5h2v-2h2v-2h3v-8l3-7 2-3-3-1 5-1-3-1-4 1-2-2 5-5 6-5h14l2 3-2 2 1 5h-3v2h-2l-1 2h-3l-1 2-3-2-2 8-27 63-19 45-19 44-18 42-2 4 11-9 14-13 8-7 15-13 12-11 8-7 14-12 13-12 8-7 14-12 13-12 8-7 10-9 11-9 11-10v-2l-16-10-15-10-26-17-12-8 2-5 7-1 5 4 2 1v-2l4-1-1-7 3-7 5-4 12 1 2-5 2-1-1-3h-2l-1-5 2-1 1-3h-2l-2-3v-6l1-2-3-1 1-2 11 7 17 11 29 19 17 11 39 26 20 14 2 2-2 2-2-1 3 10 1 2-5 1 3 4-4 1 1 3-8 1-5 5-4 3-1 5h-6l5 5h4l1 9-8 1-3-1-3 1-2-1 1 3-4-1-7-5-5 2-10 10-11 9-7 7-8 7-14 12-11 10-8 7-10 9-8 7-14 12-14 13-6 5h-2v2l-8 7-10 9-11 9-15 14-11 9-14 13-8 7-10 9-8 7-10 9-11 9-15 14-11 9-14 13-14 11-8 3-10 1-12-3-6-4-8-9-3-7-2-16-17-264-7-106v-17l6 1v2l3 1v-20h2l-1-7 1-7 1-4h2l1-11 5-9 5-5 6-13 1-7 1-2h2z" fill="#ffffff"/>
<path transform="translate(1801,451)" d="m0 0h4l-2 10-17 63-60 220-8 29-5 4-2-1v2h-3v7l-2 1-2-2-4 2-1 9-2 4h-2v-8l-2 3-2 7-2 4h-2l-2 6-3 4-1-4-6 6-4-2-3-5-2 4-6 1-2 6-3 5-6 1v-17l3-8-2-5 3-6 2-3-1-1v-8l-5 1 9-34 54-198 13-47 2-2 1 3-1 4 2 1 1 2-5 6 4 8 5-2 2-4 8-6 2-5 7-4 4-5 5-4 7-9 2-1 1-2-3 1v-4l-4 2-5 6-2-3 1-3 6-3 8-5h5l2-4h2v-2l6-4 1 4 2-1v7l3-5 1-5 1-7 3-1z" fill="#ffffff"/>
<path transform="translate(767,1011)" d="m0 0 4 5 6 1v2h2v8l1 2 3 1v-13l3-2h5l18 279-1 9-4 6-2 1-3 14-8 11-5 6-4 2v3h-2l-2 5-12 9v2h-2v8l-4 2-2 4v-4l-7 4-2-5-17-260v-17l6 1v2l3 1v-20h2l-1-7 1-7 1-4h2l1-11 5-9 5-5 6-13 1-7 1-2h2z" fill="#ffffff"/>
<path transform="translate(685,1443)" d="m0 0h11l10 3 9 7 6 10 2 7v11l-4 10-8 10-12 14-11 12-9 11-13 14-7 8-9 10-9 11-13 14-9 11-16 17-7 6-11 4h-12l-9-3-8-6-5-7-3-8v-15l4-10 13-15 10-11 9-11 15-16 9-11 12-13 7-8 12-14 9-10 7-8 12-14 11-8z" fill="#ffffff"/>
<path transform="translate(999,1561)" d="m0 0h11l9 3 6 4 8 9 3 7 1 5v7l-3 10-5 8-8 10-12 14-9 11-11 13-6 8h-2l-2 4-12 14-9 11-11 13-9 11-11 12-7 5-9 3h-10l-10-3-8-6-4-5-4-8-1-3v-14l4-9 4-6 12-14 9-11 12-14 9-11 12-14 11-14 10-11 9-11 11-13 7-8 6-4z" fill="#ffffff"/>
<path transform="translate(529,1072)" d="m0 0h10l10 3 9 7 6 10 2 6v12l-4 10-9 11-25 25-1 2h-2l-2 4-43 43-2 3h-2l-2 4-16 16-9 6-10 3h-9l-10-3-9-7-6-10-2-7v-11l4-10 7-9 38-38 7-8 33-33 7-8 13-13 7-5z" fill="#ffffff"/>
<path transform="translate(517,1633)" d="m0 0h14l10 4 8 7 6 12 1 5-1 13-6 11-11 12-9 11-13 14-9 11-15 16-8 7-8 3h-17l-10-5-7-7-5-10-1-4v-10l4-11 6-8 10-11 9-11 14-15 9-11 9-10 5-5 5-4z" fill="#ffffff"/>
<path transform="translate(1728,433)" d="m0 0 2 3-16 15-15 14-13 12-15 14-10 9-15 14-12 11-15 14-10 9-15 14-12 11-15 14-24 22-30 28h-2v2l-8 7-15 14-3 1v2l-8 7-16 15h-2v2l-8 7-16 15-12 11-14 13h-2v2l-8 7-16 15-12 11-15 14-12 11-26 24-15 14-24 22-15 14-13 12-12 11-15 14-3 1v2l-8 7-16 15h-2v2l-8 7-16 15-12 11-15 14-12 11-13 12-12 11-15 14-12 11-26 24-15 14-12 11-15 14-12 10h-2l-2 5-2 2-1-3-4 1 1-4-2-1v-2l-2-2h3v-2h2l1-3 5 1 3-1 1-2h2l3-9 3-3 1-4 4-2 1-1h2l-2-4 4-4-1 6 6-4 6-8 3 2 6-5 5-6h-6v-2h2l1-2 2-1 2-3 5-3h2v3l10-11 7-4h3l1-3 5-2 3-3 2-4 3-1 6-7h2l1-4h2l1-3h2v-2l5-5 7-6 6-5 5-2 13-11 5-6 4-4h2v-2h2v-2h2v-2h2l2-5 11-14 5-3h5l8-7 4-5 6-5h2l2-4 4-4h2l1-3h2l2-4 3-5 6-8 5-3h5l8-7 1-2h2l1-3 8-7 4-2 1-3 4-4h2v-2l4-4h2v-2h2l2-4h2l2-4 4-4 5-1v-3l8-5h2l1-3 5-5h3l1-3h2v-2l5-5 7-9h2l1-3 4-1v-2l5-4 1-2 5-2 3-1 1-3 6-4 6-7 8-7 4-5 3-3 3-5 12-12 3-2 7-2 12-12 8-7 10-10 8-11 6-5 10-3 2-4 8-8h2v-2l6-5h2l2-4h2l2-4 5-5 3-5 4-2 2-4 9-4 13-13 5-4h2l1-3 6-5 7-8h2l2-4 8-8 10-5 3-5 8-7 5-6 4-4h2l2-4 3-1 2-4h2l2-4h2v-2l8-7 9-6 4-4h2l1-3 6-5 7-8 5-5h2l1-3 8-7 4-5 8-5 3 1 1-4 4-4h3l2-4 5-4 2-3h2v-2h2l1-3 8-7 4-5h2l1-4 2-1 1-3 7-5 9-5 8-6 5-5z" fill="#ffffff"/>
<path transform="translate(355,1249)" d="m0 0h11l9 3 6 4 7 8 4 9 1 10-2 9-6 10-14 15-12 12-8 6-9 3h-13l-10-4-8-7-6-11-1-4v-11l3-9 8-11 26-26 10-5z" fill="#ffffff"/>
<path transform="translate(1098,1443)" d="m0 0h11l10 3 9 7 6 10 2 7v10l-4 10-6 9-17 17-8 5-6 2h-16l-9-4-8-7-6-12-1-8 2-12 7-11 19-19 8-5z" fill="#ffffff"/>
<path transform="translate(955,1124)" d="m0 0 3 1 1 3-4 6-4 4h-2l3 5-8 8-5 7h-2l-2 4-10 12-3 3-1-3-9 10-6 11-3 4-2 9-4 2-6 12-1-4 8-17 4-6h2l-1-5 5-10 7-11 11-12 6-8h2l2-5 5-7 5-1 5-6h2z" fill="#ffffff"/>
<path transform="translate(685,1443)" d="m0 0h11l10 3 7 5v5l-8-1-5-3-5-1v5l-6 2-2 5h-2l-1 5-11 7 2-5h2l-1-2-7 8-4 1-1 3-1-4 2-8 2-4h2v-2l4-4 2-3h2v-2l5-2v-4l-4-1 3-2z" fill="#ffffff"/>
<path transform="translate(752,1325)" d="m0 0 2 4v9h2l3 9-2 5 2 6 4 1 1 1v10l-4 2-2 4v-4l-7 4-2-5-2-29v-13l4-2z" fill="#ffffff"/>
<path transform="translate(1809,414)" d="m0 0h4v2h2l-4 16-5 18-5 2-4 4-1 10-3 4-3 3v-7l-2 2v-7l3-1 2-7 3-11 1-2h2l1-8 2-7 6-10z" fill="#ffffff"/>
<path transform="translate(955,1158)" d="m0 0h3v2l-4 1 2 1-2 4-2 9-1 5h-3v2h-2v2h-2l1 5-3 1v9l-3 1v5l-5 2h-1l-1-3 2-4h-3v-2h2v-7l3-3 1-7 5-9 1-4h2l1-4 6-5z" fill="#ffffff"/>
<path transform="translate(1795,386)" d="m0 0 4 2-2 16 1 3v5l2 4-3 9-1 7-4 4-1-7 1-5v-10h-2l1-6h2l-1-4-1-6 1-3h2z" fill="#ffffff"/>
<path transform="translate(752,1325)" d="m0 0 2 4v9h2l3 9-2 5-2 3v-2l-5 1v5l-2-2-1-15v-13l4-2z" fill="#ffffff"/>
<path transform="translate(685,1443)" d="m0 0h11l10 3 7 5v5l-8-1-5-3-9-2h-9v-3l-4-1 3-2z" fill="#ffffff"/>
<path transform="translate(896,934)" d="m0 0 2 1-1 2 3 1-1 5-18 11-9 6h-2l-1-3h2l2-7 2 1 9-5 4-4h3l2-6z" fill="#ffffff"/>
<path transform="translate(980,1092)" d="m0 0h6l2 4v3h-2l-1 5h-9l-2 7h-6l2-6 4-7 2-1 2-3h2z" fill="#ffffff"/>
<path transform="translate(973,818)" d="m0 0 2 1v2l-1 1 1 2h-3l-1 3-9 3-5 6-6 1h-2l-5 4-3-1 5-5 18-11z" fill="#ffffff"/>
<path transform="translate(840,976)" d="m0 0 1 4-22 14-5 2v-2h2v-7l5-1 2 1v-2l6-1-2-2 4-1v-3h3l5-1z" fill="#ffffff"/>
<path transform="translate(1726,414)" d="m0 0h2v3l9 2-2 5-4 3h-3v-2l-5 2v-2l-2-1v-6z" fill="#ffffff"/>
<path transform="translate(807,1281)" d="m0 0h1l1 16-2 8-3 4-4-2 3-16 1-3h3z" fill="#ffffff"/>
<path transform="translate(1747,452)" d="m0 0h1v8l-2 3-2 4v6l-2 2-2-4-5-5 1-5h5z" fill="#ffffff"/>
<path transform="translate(1008,1065)" d="m0 0 1 2-4 4h-2l-1 5-3 5-5 2-1 3-2-1v2h-2l-1 2-3-2h2l2-4 14-14z" fill="#ffffff"/>
<path transform="translate(1744,431)" d="m0 0 5 1 1 5-2 6-5 2-1 4h-2l1-7z" fill="#ffffff"/>
<path transform="translate(1153,702)" d="m0 0 5 2v3l-5 2-1 3h-3l-1 2-2-4 1-4z" fill="#ffffff"/>
<path transform="translate(973,818)" d="m0 0 2 1v2l-1 1 1 2h-3l-1 3-9 2v-4z" fill="#ffffff"/>
<path transform="translate(752,1325)" d="m0 0 2 4-1 6-2 3h-3l-1 4v-13l4-2z" fill="#ffffff"/>
<path transform="translate(864,957)" d="m0 0 4 1v2l2 1-10 7h-2l1-6h2l1-4z" fill="#ffffff"/>
<path transform="translate(1726,499)" d="m0 0 2 3-1 4 2 1 1 2-4 4h-4l3-12z" fill="#ffffff"/>
<path transform="translate(937,905)" d="m0 0 2 1-1 4-3 3h-5l1-5h3v-2h2z" fill="#ffffff"/>
<path transform="translate(1546,357)" d="m0 0 3 1-5 4-10 1-1-2z" fill="#ffffff"/>
<path transform="translate(748,1347)" d="m0 0 6 3 1 3-5 1v5l-2-2z" fill="#ffffff"/>
<path transform="translate(777 1e3)" d="m0 0h2l1 5-3 5-4-5 1-3 3 2z" fill="#ffffff"/>
<path transform="translate(1583,350)" d="m0 0h3l-1 3h-2l1 3-4 1-2-1 1-2-4 2-3-2h4l1-2 5-1z" fill="#ffffff"/>
<path transform="translate(1727,526)" d="m0 0 3 1-1 6-3 2-2-2 1-4z" fill="#ffffff"/>
<path transform="translate(747,1331)" d="m0 0 5 2-1 5h-3l-1 4z" fill="#ffffff"/>
<path transform="translate(951,832)" d="m0 0 3 3-2 1-3-1v2l-5 4-3-1 5-5z" fill="#ffffff"/>
<path transform="translate(1565,355)" d="m0 0 1 2h2l-1 4-8 1 2-5z" fill="#ffffff"/>
<path transform="translate(1756,443)" d="m0 0h4v5l-3 3v-2h-2l-1-3z" fill="#ffffff"/>
<path transform="translate(1816,403)" d="m0 0 2 3-2 5h-3l-1-4z" fill="#ffffff"/>
<path transform="translate(1012,1118)" d="m0 0 8 4-1 4h-2v-2l-3-1 1-2-3-1z" fill="#ffffff"/>
<path transform="translate(852,967)" d="m0 0 6 1-5 4h-4l2-4z" fill="#ffffff"/>
</svg>
